<?xml version="1.0" encoding="UTF-8" standalone="no"?>
<!-- Created with Inkscape (http://www.inkscape.org/) -->

<svg
   xmlns:dc="http://purl.org/dc/elements/1.1/"
   xmlns:cc="http://creativecommons.org/ns#"
   xmlns:rdf="http://www.w3.org/1999/02/22-rdf-syntax-ns#"
   xmlns:svg="http://www.w3.org/2000/svg"
   xmlns="http://www.w3.org/2000/svg"
   xmlns:xlink="http://www.w3.org/1999/xlink"
   xmlns:sodipodi="http://sodipodi.sourceforge.net/DTD/sodipodi-0.dtd"
   xmlns:inkscape="http://www.inkscape.org/namespaces/inkscape"
   width="315.90656"
   height="64"
   viewBox="0 0 83.583612 16.933333"
   version="1.1"
   id="svg13845"
   inkscape:version="0.92.4 5da689c313, 2019-01-14"
   sodipodi:docname="logo_with_text.svg">
  <defs
     id="defs13839">
    <linearGradient
       inkscape:collect="always"
       xlink:href="#linearGradient11232"
       id="linearGradient13815"
       gradientUnits="userSpaceOnUse"
       x1="227.40938"
       y1="536.97711"
       x2="280.06146"
       y2="536.97711" />
    <linearGradient
       inkscape:collect="always"
       id="linearGradient11232">
      <stop
         style="stop-color:#a40000;stop-opacity:1"
         offset="0"
         id="stop11228" />
      <stop
         id="stop11370"
         offset="0.07537677"
         style="stop-color:#ef2929;stop-opacity:1" />
      <stop
         style="stop-color:#ef2929;stop-opacity:1"
         offset="0.87437171"
         id="stop11372" />
      <stop
         style="stop-color:#a40000;stop-opacity:1"
         offset="1"
         id="stop11230" />
    </linearGradient>
    <linearGradient
       inkscape:collect="always"
       xlink:href="#linearGradient11634"
       id="linearGradient13817"
       gradientUnits="userSpaceOnUse"
       x1="226.63908"
       y1="544.39404"
       x2="235.29608"
       y2="549.70062" />
    <linearGradient
       inkscape:collect="always"
       id="linearGradient11634">
      <stop
         style="stop-color:#ef2929;stop-opacity:1;"
         offset="0"
         id="stop11630" />
      <stop
         style="stop-color:#a40000;stop-opacity:1"
         offset="1"
         id="stop11632" />
    </linearGradient>
    <linearGradient
       inkscape:collect="always"
       xlink:href="#linearGradient11634"
       id="linearGradient13819"
       gradientUnits="userSpaceOnUse"
       x1="276.09271"
       y1="540.1521"
       x2="279.53229"
       y2="542.26874" />
    <linearGradient
       inkscape:collect="always"
       xlink:href="#linearGradient11714"
       id="linearGradient13821"
       gradientUnits="userSpaceOnUse"
       x1="269.28397"
       y1="531.46887"
       x2="274.05472"
       y2="530.90759" />
    <linearGradient
       inkscape:collect="always"
       id="linearGradient11714">
      <stop
         style="stop-color:#a40000;stop-opacity:1"
         offset="0"
         id="stop11710" />
      <stop
         style="stop-color:#ef2929;stop-opacity:1"
         offset="1"
         id="stop11712" />
    </linearGradient>
    <linearGradient
       inkscape:collect="always"
       xlink:href="#linearGradient13653"
       id="linearGradient13797"
       gradientUnits="userSpaceOnUse"
       x1="1772.0096"
       y1="1869.9315"
       x2="1772.0096"
       y2="1761.0371" />
    <linearGradient
       inkscape:collect="always"
       id="linearGradient13653">
      <stop
         style="stop-color:#d3d7cf;stop-opacity:1"
         offset="0"
         id="stop13647" />
      <stop
         id="stop13649"
         offset="0.60000002"
         style="stop-color:#babdb6;stop-opacity:1" />
      <stop
         style="stop-color:#babdb6;stop-opacity:0;"
         offset="1"
         id="stop13651" />
    </linearGradient>
    <linearGradient
       inkscape:collect="always"
       xlink:href="#linearGradient11714"
       id="linearGradient13791"
       gradientUnits="userSpaceOnUse"
       x1="240.24167"
       y1="540.28436"
       x2="262.20209"
       y2="540.28436" />
    <linearGradient
       inkscape:collect="always"
       xlink:href="#linearGradient11714"
       id="linearGradient13793"
       gradientUnits="userSpaceOnUse"
       x1="234.95"
       y1="545.04688"
       x2="229.26146"
       y2="545.04688" />
    <linearGradient
       inkscape:collect="always"
       xlink:href="#linearGradient11634"
       id="linearGradient13795"
       gradientUnits="userSpaceOnUse"
       x1="222.40121"
       y1="545.08209"
       x2="225.79793"
       y2="546.76453" />
    <linearGradient
       inkscape:collect="always"
       xlink:href="#linearGradient11714"
       id="linearGradient18756"
       gradientUnits="userSpaceOnUse"
       x1="240.24167"
       y1="540.28436"
       x2="262.20209"
       y2="540.28436" />
    <linearGradient
       inkscape:collect="always"
       xlink:href="#linearGradient11714"
       id="linearGradient18758"
       gradientUnits="userSpaceOnUse"
       x1="234.95"
       y1="545.04688"
       x2="229.26146"
       y2="545.04688" />
    <linearGradient
       inkscape:collect="always"
       xlink:href="#linearGradient11634"
       id="linearGradient18760"
       gradientUnits="userSpaceOnUse"
       x1="222.40121"
       y1="545.08209"
       x2="225.79793"
       y2="546.76453" />
    <linearGradient
       inkscape:collect="always"
       xlink:href="#linearGradient11714"
       id="linearGradient18762"
       gradientUnits="userSpaceOnUse"
       x1="240.24167"
       y1="540.28436"
       x2="262.20209"
       y2="540.28436" />
    <linearGradient
       inkscape:collect="always"
       xlink:href="#linearGradient11714"
       id="linearGradient18764"
       gradientUnits="userSpaceOnUse"
       x1="234.95"
       y1="545.04688"
       x2="229.26146"
       y2="545.04688" />
    <linearGradient
       inkscape:collect="always"
       xlink:href="#linearGradient11634"
       id="linearGradient18766"
       gradientUnits="userSpaceOnUse"
       x1="222.40121"
       y1="545.08209"
       x2="225.79793"
       y2="546.76453" />
    <linearGradient
       inkscape:collect="always"
       xlink:href="#linearGradient13653"
       id="linearGradient18768"
       gradientUnits="userSpaceOnUse"
       x1="1772.0096"
       y1="1869.9315"
       x2="1772.0096"
       y2="1761.0371" />
    <linearGradient
       inkscape:collect="always"
       xlink:href="#linearGradient13653"
       id="linearGradient18770"
       gradientUnits="userSpaceOnUse"
       x1="1772.0096"
       y1="1869.9315"
       x2="1772.0096"
       y2="1761.0371" />
    <linearGradient
       inkscape:collect="always"
       xlink:href="#linearGradient11232"
       id="linearGradient18772"
       gradientUnits="userSpaceOnUse"
       x1="227.40938"
       y1="536.97711"
       x2="280.06146"
       y2="536.97711" />
    <linearGradient
       inkscape:collect="always"
       xlink:href="#linearGradient11634"
       id="linearGradient18774"
       gradientUnits="userSpaceOnUse"
       x1="226.63908"
       y1="544.39404"
       x2="235.29608"
       y2="549.70062" />
    <linearGradient
       inkscape:collect="always"
       xlink:href="#linearGradient11634"
       id="linearGradient18776"
       gradientUnits="userSpaceOnUse"
       x1="276.09271"
       y1="540.1521"
       x2="279.53229"
       y2="542.26874" />
    <linearGradient
       inkscape:collect="always"
       xlink:href="#linearGradient11714"
       id="linearGradient18778"
       gradientUnits="userSpaceOnUse"
       x1="269.28397"
       y1="531.46887"
       x2="274.05472"
       y2="530.90759" />
    <linearGradient
       inkscape:collect="always"
       xlink:href="#linearGradient11232"
       id="linearGradient18780"
       gradientUnits="userSpaceOnUse"
       x1="227.40938"
       y1="536.97711"
       x2="280.06146"
       y2="536.97711" />
    <linearGradient
       inkscape:collect="always"
       xlink:href="#linearGradient11634"
       id="linearGradient18782"
       gradientUnits="userSpaceOnUse"
       x1="226.63908"
       y1="544.39404"
       x2="235.29608"
       y2="549.70062" />
    <linearGradient
       inkscape:collect="always"
       xlink:href="#linearGradient11634"
       id="linearGradient18784"
       gradientUnits="userSpaceOnUse"
       x1="276.09271"
       y1="540.1521"
       x2="279.53229"
       y2="542.26874" />
    <linearGradient
       inkscape:collect="always"
       xlink:href="#linearGradient11714"
       id="linearGradient18786"
       gradientUnits="userSpaceOnUse"
       x1="269.28397"
       y1="531.46887"
       x2="274.05472"
       y2="530.90759" />
  </defs>
  <sodipodi:namedview
     id="base"
     pagecolor="#ffffff"
     bordercolor="#666666"
     borderopacity="1.0"
     inkscape:pageopacity="0.0"
     inkscape:pageshadow="2"
     inkscape:zoom="2.7645687"
     inkscape:cx="152.95328"
     inkscape:cy="32"
     inkscape:document-units="px"
     inkscape:current-layer="layer1"
     showgrid="false"
     fit-margin-top="0"
     fit-margin-left="0"
     fit-margin-right="10"
     fit-margin-bottom="0"
     units="px"
     inkscape:window-width="1916"
     inkscape:window-height="1044"
     inkscape:window-x="0"
     inkscape:window-y="16"
     inkscape:window-maximized="0"
     showborder="true"
     showguides="true" />
  <metadata
     id="metadata13842">
    <rdf:RDF>
      <cc:Work
         rdf:about="">
        <dc:format>image/svg+xml</dc:format>
        <dc:type
           rdf:resource="http://purl.org/dc/dcmitype/StillImage" />
        <dc:title></dc:title>
      </cc:Work>
    </rdf:RDF>
  </metadata>
  <g
     inkscape:label="Layer 1"
     inkscape:groupmode="layer"
     id="layer1"
     transform="translate(-53.10154,-157.33857)">
    <g
       id="g19136"
       transform="translate(0,-0.94518232)">
      <g
         style="stroke-width:0.26458335;stroke-miterlimit:4;stroke-dasharray:none"
         id="g19000">
        <g
           id="g13705"
           transform="matrix(-0.07505004,-0.12999049,0.12999049,-0.07505004,13.074063,239.22757)"
           style="stroke:#a40000;stroke-width:1.76271272;stroke-linecap:round;stroke-miterlimit:4;stroke-dasharray:none">
          <g
             id="g13703"
             style="stroke:#a40000;stroke-width:1.76271272;stroke-linecap:round;stroke-miterlimit:4;stroke-dasharray:none">
            <path
               sodipodi:nodetypes="ccc"
               inkscape:connector-curvature="0"
               d="m 226.45582,538.60733 c 0.88019,1.68465 8.46364,1.41595 11.74003,1.4048 h 26.14703"
               style="opacity:1;fill:none;fill-opacity:1;stroke:url(#linearGradient18756);stroke-width:1.76271272;stroke-linecap:round;stroke-linejoin:round;stroke-miterlimit:4;stroke-dasharray:none;stroke-dashoffset:0;stroke-opacity:1"
               id="path13695" />
            <path
               id="path13697"
               style="opacity:1;fill:none;fill-opacity:1;stroke:url(#linearGradient18758);stroke-width:1.76271272;stroke-linecap:round;stroke-linejoin:round;stroke-miterlimit:4;stroke-dasharray:none;stroke-dashoffset:0;stroke-opacity:1"
               d="m 280.14887,542.04738 c -0.4953,2.66307 -7.56085,2.43341 -10.65301,2.43341 h -31.81207 c -5.37135,-10e-6 -10.81801,-3.02952 -11.96198,-1.88556"
               inkscape:connector-curvature="0"
               sodipodi:nodetypes="cscc" />
            <path
               id="path13699"
               style="opacity:1;fill:none;fill-opacity:1;stroke:url(#linearGradient18760);stroke-width:1.76271272;stroke-linecap:round;stroke-linejoin:round;stroke-miterlimit:4;stroke-dasharray:none;stroke-dashoffset:0;stroke-opacity:1"
               d="m 237.36623,548.93625 c -0.32918,1.2285 -3.4568,1.71768 -6.69962,-0.15456 l -9.73737,-4.03437"
               inkscape:connector-curvature="0"
               sodipodi:nodetypes="ccc" />
            <path
               style="opacity:1;fill:none;fill-opacity:1;stroke:#a40000;stroke-width:1.76271272;stroke-linecap:round;stroke-linejoin:round;stroke-miterlimit:4;stroke-dasharray:none;stroke-dashoffset:0;stroke-opacity:1"
               inkscape:transform-center-x="15.905797"
               inkscape:transform-center-y="-6.5882922"
               d="m 269.14512,531.67001 c -0.62067,2.31636 10.92383,1.94095 11.6077,4.4932"
               id="path13701"
               inkscape:connector-curvature="0"
               sodipodi:nodetypes="cc" />
          </g>
        </g>
        <g
           id="g13717"
           transform="matrix(-0.07505004,0.12999049,-0.12999049,-0.07505004,147.91201,173.3823)"
           style="stroke:#a40000;stroke-width:1.76271272;stroke-linecap:round;stroke-miterlimit:4;stroke-dasharray:none">
          <g
             id="g13715"
             style="stroke:#a40000;stroke-width:1.76271272;stroke-linecap:round;stroke-miterlimit:4;stroke-dasharray:none">
            <path
               sodipodi:nodetypes="ccc"
               inkscape:connector-curvature="0"
               d="m 226.45582,538.60733 c 0.88019,1.68465 8.46364,1.41595 11.74003,1.4048 h 26.14703"
               style="opacity:1;fill:none;fill-opacity:1;stroke:url(#linearGradient18762);stroke-width:1.76271272;stroke-linecap:round;stroke-linejoin:round;stroke-miterlimit:4;stroke-dasharray:none;stroke-dashoffset:0;stroke-opacity:1"
               id="path13707" />
            <path
               id="path13709"
               style="opacity:1;fill:none;fill-opacity:1;stroke:url(#linearGradient18764);stroke-width:1.76271272;stroke-linecap:round;stroke-linejoin:round;stroke-miterlimit:4;stroke-dasharray:none;stroke-dashoffset:0;stroke-opacity:1"
               d="m 280.14887,542.04738 c -0.4953,2.66307 -7.56085,2.43341 -10.65301,2.43341 h -31.81207 c -5.37135,-10e-6 -10.81801,-3.02952 -11.96198,-1.88556"
               inkscape:connector-curvature="0"
               sodipodi:nodetypes="cscc" />
            <path
               id="path13711"
               style="opacity:1;fill:none;fill-opacity:1;stroke:url(#linearGradient18766);stroke-width:1.76271272;stroke-linecap:round;stroke-linejoin:round;stroke-miterlimit:4;stroke-dasharray:none;stroke-dashoffset:0;stroke-opacity:1"
               d="m 237.36623,548.93625 c -0.32918,1.2285 -3.4568,1.71768 -6.69962,-0.15456 l -9.73737,-4.03437"
               inkscape:connector-curvature="0"
               sodipodi:nodetypes="ccc" />
            <path
               style="opacity:1;fill:none;fill-opacity:1;stroke:#a40000;stroke-width:1.76271272;stroke-linecap:round;stroke-linejoin:round;stroke-miterlimit:4;stroke-dasharray:none;stroke-dashoffset:0;stroke-opacity:1"
               inkscape:transform-center-x="15.905797"
               inkscape:transform-center-y="-6.5882922"
               d="m 269.14512,531.67001 c -0.62067,2.31636 10.92383,1.94095 11.6077,4.4932"
               id="path13713"
               inkscape:connector-curvature="0"
               sodipodi:nodetypes="cc" />
          </g>
        </g>
        <g
           id="g13729"
           transform="matrix(0.15010009,0,0,0.15010009,23.469356,89.531845)"
           style="stroke:#a40000;stroke-width:1.76271272;stroke-linecap:round;stroke-miterlimit:4;stroke-dasharray:none">
          <g
             id="g13727"
             style="stroke:#a40000;stroke-width:1.76271272;stroke-linecap:round;stroke-miterlimit:4;stroke-dasharray:none">
            <path
               sodipodi:nodetypes="ccc"
               inkscape:connector-curvature="0"
               d="m 226.45582,538.60733 c 0.88019,1.68465 8.46364,1.41595 11.74003,1.4048 h 26.14703"
               style="opacity:1;fill:none;fill-opacity:1;stroke:url(#linearGradient13791);stroke-width:1.76271272;stroke-linecap:round;stroke-linejoin:round;stroke-miterlimit:4;stroke-dasharray:none;stroke-dashoffset:0;stroke-opacity:1"
               id="path13719" />
            <path
               id="path13721"
               style="opacity:1;fill:none;fill-opacity:1;stroke:url(#linearGradient13793);stroke-width:1.76271272;stroke-linecap:round;stroke-linejoin:round;stroke-miterlimit:4;stroke-dasharray:none;stroke-dashoffset:0;stroke-opacity:1"
               d="m 280.14887,542.04738 c -0.4953,2.66307 -7.56085,2.43341 -10.65301,2.43341 h -31.81207 c -5.37135,-10e-6 -10.81801,-3.02952 -11.96198,-1.88556"
               inkscape:connector-curvature="0"
               sodipodi:nodetypes="cscc" />
            <path
               id="path13723"
               style="opacity:1;fill:none;fill-opacity:1;stroke:url(#linearGradient13795);stroke-width:1.76271272;stroke-linecap:round;stroke-linejoin:round;stroke-miterlimit:4;stroke-dasharray:none;stroke-dashoffset:0;stroke-opacity:1"
               d="m 237.36623,548.93625 c -0.32918,1.2285 -3.4568,1.71768 -6.69962,-0.15456 l -9.73737,-4.03437"
               inkscape:connector-curvature="0"
               sodipodi:nodetypes="ccc" />
            <path
               style="opacity:1;fill:none;fill-opacity:1;stroke:#a40000;stroke-width:1.76271272;stroke-linecap:round;stroke-linejoin:round;stroke-miterlimit:4;stroke-dasharray:none;stroke-dashoffset:0;stroke-opacity:1"
               inkscape:transform-center-x="15.905797"
               inkscape:transform-center-y="-6.5882922"
               d="m 269.14512,531.67001 c -0.62067,2.31636 10.92383,1.94095 11.6077,4.4932"
               id="path13725"
               inkscape:connector-curvature="0"
               sodipodi:nodetypes="cc" />
          </g>
        </g>
      </g>
      <g
         transform="matrix(-0.07505004,0.12999049,-0.12999049,-0.07505004,165.26823,143.33069)"
         id="use13731"
         style="stroke:#babdb6">
        <path
           style="opacity:1;fill:none;fill-opacity:1;stroke:url(#linearGradient18768);stroke-width:33.31110764;stroke-linecap:butt;stroke-linejoin:round;stroke-miterlimit:4;stroke-dasharray:none;stroke-dashoffset:0;stroke-opacity:1"
           d="m 1766.0547,1754.9761 v 39.8071 c 0,35.941 29.1352,65.0781 65.0762,65.0781 35.941,0 65.0781,-29.1371 65.0781,-65.0781 v -39.8071"
           transform="scale(0.26458333)"
           id="path13831"
           inkscape:connector-curvature="0"
           sodipodi:nodetypes="cscsc" />
        <g
           id="g13833"
           transform="translate(379.35114,262.13501)"
           style="fill:none;stroke:#babdb6;stroke-width:7;stroke-linecap:round;stroke-miterlimit:4;stroke-dasharray:none" />
      </g>
      <g
         transform="matrix(-0.07505004,-0.12999049,0.12999049,-0.07505004,30.725823,269.2074)"
         id="use13733"
         style="stroke:#babdb6">
        <path
           style="opacity:1;fill:none;fill-opacity:1;stroke:url(#linearGradient18770);stroke-width:33.31110764;stroke-linecap:butt;stroke-linejoin:round;stroke-miterlimit:4;stroke-dasharray:none;stroke-dashoffset:0;stroke-opacity:1"
           d="m 1766.0547,1754.9761 v 39.8071 c 0,35.941 29.1352,65.0781 65.0762,65.0781 35.941,0 65.0781,-29.1371 65.0781,-65.0781 v -39.8071"
           transform="scale(0.26458333)"
           id="path13823"
           inkscape:connector-curvature="0"
           sodipodi:nodetypes="cscsc" />
        <g
           id="g13825"
           transform="translate(379.35114,262.13501)"
           style="fill:none;stroke:#babdb6;stroke-width:7;stroke-linecap:round;stroke-miterlimit:4;stroke-dasharray:none" />
      </g>
      <g
         transform="matrix(0.15010009,0,0,0.15010009,-11.231441,89.531845)"
         id="g13739"
         style="stroke:#babdb6">
        <path
           style="opacity:1;fill:none;fill-opacity:1;stroke:url(#linearGradient13797);stroke-width:33.31110764;stroke-linecap:butt;stroke-linejoin:round;stroke-miterlimit:4;stroke-dasharray:none;stroke-dashoffset:0;stroke-opacity:1"
           d="m 1766.0547,1754.9761 v 39.8071 c 0,35.941 29.1352,65.0781 65.0762,65.0781 35.941,0 65.0781,-29.1371 65.0781,-65.0781 v -39.8071"
           transform="scale(0.26458333)"
           id="path13735"
           inkscape:connector-curvature="0"
           sodipodi:nodetypes="cscsc" />
        <g
           id="g13737"
           transform="translate(379.35114,262.13501)"
           style="fill:none;stroke:#babdb6;stroke-width:7;stroke-linecap:round;stroke-miterlimit:4;stroke-dasharray:none" />
      </g>
      <g
         style="stroke-width:0.26458335;stroke-miterlimit:4;stroke-dasharray:none"
         id="g19020">
        <g
           id="g13753"
           transform="matrix(0.15010009,0,0,0.15010009,23.469356,89.531845)"
           style="stroke:#ef2929;stroke-width:1.76271272;stroke-linecap:round;stroke-miterlimit:4;stroke-dasharray:none">
          <g
             id="g13749"
             style="stroke:#ef2929;stroke-width:1.76271272;stroke-linecap:round;stroke-miterlimit:4;stroke-dasharray:none">
            <path
               sodipodi:nodetypes="csccc"
               inkscape:connector-curvature="0"
               d="m 280.75282,536.16321 c 0.68388,2.55224 -3.02605,-0.57332 -15.67352,-0.57331 h -26.45673 m 0,0 c -2.96614,0 -13.45673,0.54846 -12.16675,3.01743"
               style="opacity:1;fill:none;fill-opacity:1;stroke:url(#linearGradient18772);stroke-width:1.76271272;stroke-linecap:round;stroke-linejoin:round;stroke-miterlimit:4;stroke-dasharray:none;stroke-dashoffset:0;stroke-opacity:1"
               id="path13743" />
            <path
               sodipodi:nodetypes="cc"
               inkscape:connector-curvature="0"
               d="m 225.72181,542.59523 c 0.23066,2.65855 12.55452,3.20265 11.64442,6.34102"
               style="opacity:1;fill:none;fill-opacity:1;stroke:url(#linearGradient18774);stroke-width:1.76271272;stroke-linecap:round;stroke-linejoin:round;stroke-miterlimit:4;stroke-dasharray:none;stroke-dashoffset:0;stroke-opacity:1"
               id="path13745" />
            <path
               id="path13747"
               style="opacity:1;fill:none;fill-opacity:1;stroke:url(#linearGradient18776);stroke-width:1.76271272;stroke-linecap:round;stroke-linejoin:round;stroke-miterlimit:4;stroke-dasharray:none;stroke-dashoffset:0;stroke-opacity:1"
               d="m 264.34288,540.01213 c 1.85632,0.0335 16.30129,-0.62782 15.80599,2.03524"
               inkscape:connector-curvature="0"
               sodipodi:nodetypes="cc" />
          </g>
          <path
             sodipodi:nodetypes="ccc"
             inkscape:connector-curvature="0"
             d="m 292.05899,534.06513 c 0,5.03356 -6.02773,3.24475 -9.74798,1.09686 -2.87579,-1.85856 -11.97867,-7.21243 -13.16589,-3.49198"
             style="fill:none;fill-opacity:1;fill-rule:evenodd;stroke:url(#linearGradient18778);stroke-width:1.76271272;stroke-linecap:round;stroke-linejoin:miter;stroke-miterlimit:4;stroke-dasharray:none;stroke-opacity:1"
             id="path13751" />
        </g>
        <g
           id="g13765"
           transform="matrix(-0.07505004,-0.12999049,0.12999049,-0.07505004,13.074063,239.22757)"
           style="stroke:#ef2929;stroke-width:1.76271272;stroke-linecap:round;stroke-miterlimit:4;stroke-dasharray:none">
          <g
             id="g13761"
             style="stroke:#ef2929;stroke-width:1.76271272;stroke-linecap:round;stroke-miterlimit:4;stroke-dasharray:none">
            <path
               sodipodi:nodetypes="csccc"
               inkscape:connector-curvature="0"
               d="m 280.75282,536.16321 c 0.68388,2.55224 -3.02605,-0.57332 -15.67352,-0.57331 h -26.45673 m 0,0 c -2.96614,0 -13.45673,0.54846 -12.16675,3.01743"
               style="opacity:1;fill:none;fill-opacity:1;stroke:url(#linearGradient18780);stroke-width:1.76271272;stroke-linecap:round;stroke-linejoin:round;stroke-miterlimit:4;stroke-dasharray:none;stroke-dashoffset:0;stroke-opacity:1"
               id="path13755" />
            <path
               sodipodi:nodetypes="cc"
               inkscape:connector-curvature="0"
               d="m 225.72181,542.59523 c 0.23066,2.65855 12.55452,3.20265 11.64442,6.34102"
               style="opacity:1;fill:none;fill-opacity:1;stroke:url(#linearGradient18782);stroke-width:1.76271272;stroke-linecap:round;stroke-linejoin:round;stroke-miterlimit:4;stroke-dasharray:none;stroke-dashoffset:0;stroke-opacity:1"
               id="path13757" />
            <path
               id="path13759"
               style="opacity:1;fill:none;fill-opacity:1;stroke:url(#linearGradient18784);stroke-width:1.76271272;stroke-linecap:round;stroke-linejoin:round;stroke-miterlimit:4;stroke-dasharray:none;stroke-dashoffset:0;stroke-opacity:1"
               d="m 264.34288,540.01213 c 1.85632,0.0335 16.30129,-0.62782 15.80599,2.03524"
               inkscape:connector-curvature="0"
               sodipodi:nodetypes="cc" />
          </g>
          <path
             sodipodi:nodetypes="ccc"
             inkscape:connector-curvature="0"
             d="m 292.05899,534.06513 c 0,5.03356 -6.02773,3.24475 -9.74798,1.09686 -2.87579,-1.85856 -11.97867,-7.21243 -13.16589,-3.49198"
             style="fill:none;fill-opacity:1;fill-rule:evenodd;stroke:url(#linearGradient18786);stroke-width:1.76271272;stroke-linecap:round;stroke-linejoin:miter;stroke-miterlimit:4;stroke-dasharray:none;stroke-opacity:1"
             id="path13763" />
        </g>
        <g
           id="g13777"
           transform="matrix(-0.07505004,0.12999049,-0.12999049,-0.07505004,147.91201,173.3823)"
           style="stroke:#ef2929;stroke-width:1.76271272;stroke-linecap:round;stroke-miterlimit:4;stroke-dasharray:none">
          <g
             id="g13773"
             style="stroke:#ef2929;stroke-width:1.76271272;stroke-linecap:round;stroke-miterlimit:4;stroke-dasharray:none">
            <path
               sodipodi:nodetypes="csccc"
               inkscape:connector-curvature="0"
               d="m 280.75282,536.16321 c 0.68388,2.55224 -3.02605,-0.57332 -15.67352,-0.57331 h -26.45673 m 0,0 c -2.96614,0 -13.45673,0.54846 -12.16675,3.01743"
               style="opacity:1;fill:none;fill-opacity:1;stroke:url(#linearGradient13815);stroke-width:1.76271272;stroke-linecap:round;stroke-linejoin:round;stroke-miterlimit:4;stroke-dasharray:none;stroke-dashoffset:0;stroke-opacity:1"
               id="path13767" />
            <path
               sodipodi:nodetypes="cc"
               inkscape:connector-curvature="0"
               d="m 225.72181,542.59523 c 0.23066,2.65855 12.55452,3.20265 11.64442,6.34102"
               style="opacity:1;fill:none;fill-opacity:1;stroke:url(#linearGradient13817);stroke-width:1.76271272;stroke-linecap:round;stroke-linejoin:round;stroke-miterlimit:4;stroke-dasharray:none;stroke-dashoffset:0;stroke-opacity:1"
               id="path13769" />
            <path
               id="path13771"
               style="opacity:1;fill:none;fill-opacity:1;stroke:url(#linearGradient13819);stroke-width:1.76271272;stroke-linecap:round;stroke-linejoin:round;stroke-miterlimit:4;stroke-dasharray:none;stroke-dashoffset:0;stroke-opacity:1"
               d="m 264.34288,540.01213 c 1.85632,0.0335 16.30129,-0.62782 15.80599,2.03524"
               inkscape:connector-curvature="0"
               sodipodi:nodetypes="cc" />
          </g>
          <path
             sodipodi:nodetypes="ccc"
             inkscape:connector-curvature="0"
             d="m 292.05899,534.06513 c 0,5.03356 -6.02773,3.24475 -9.74798,1.09686 -2.87579,-1.85856 -11.97867,-7.21243 -13.16589,-3.49198"
             style="fill:none;fill-opacity:1;fill-rule:evenodd;stroke:url(#linearGradient13821);stroke-width:1.76271272;stroke-linecap:round;stroke-linejoin:miter;stroke-miterlimit:4;stroke-dasharray:none;stroke-opacity:1"
             id="path13775" />
        </g>
      </g>
    </g>
    <g
       aria-label="Secret Sharing Pad"
       style="font-style:normal;font-variant:normal;font-weight:normal;font-stretch:normal;font-size:7.9375px;line-height:2.72248173px;font-family:'Myriad Pro';-inkscape-font-specification:'Myriad Pro';text-align:start;letter-spacing:0px;word-spacing:0px;text-anchor:start;fill:#000000;fill-opacity:1;stroke:none;stroke-width:0.26458335px;stroke-linecap:butt;stroke-linejoin:miter;stroke-opacity:1"
       id="text19081">
      <path
         d="m 75.992555,167.51973 c 0.277812,0.20638 0.817562,0.35719 1.277937,0.35719 1.143,0 1.698625,-0.69056 1.698625,-1.46844 0,-0.79375 -0.468312,-1.19856 -1.349375,-1.55575 -0.769937,-0.30162 -1.11125,-0.60325 -1.11125,-1.19062 0,-0.42069 0.293688,-0.97631 1.158875,-0.97631 0.460375,0 0.801688,0.15081 0.944563,0.254 l 0.142875,-0.32544 c -0.182563,-0.11906 -0.563563,-0.24606 -1.063625,-0.24606 -0.912813,0 -1.55575,0.5715 -1.55575,1.35731 0,0.72231 0.515937,1.16681 1.373187,1.47637 0.777875,0.29369 1.087438,0.65088 1.087438,1.24619 0,0.65881 -0.492125,1.11125 -1.293813,1.11125 -0.4445,0 -0.865187,-0.14287 -1.166812,-0.34925 z"
         style="font-style:normal;font-variant:normal;font-weight:300;font-stretch:normal;font-size:7.9375px;font-family:'Myriad Pro';-inkscape-font-specification:'Myriad Pro, Light';font-variant-ligatures:normal;font-variant-caps:normal;font-variant-numeric:normal;font-feature-settings:normal;text-align:start;writing-mode:lr-tb;text-anchor:start;stroke-width:0.26458335px"
         id="path19138" />
      <path
         d="m 82.890226,165.85286 c 0.01588,-0.0714 0.01588,-0.127 0.01588,-0.23019 0,-0.54769 -0.238125,-1.72244 -1.484313,-1.72244 -0.98425,0 -1.7145,0.79375 -1.7145,2.06375 0,1.11919 0.682625,1.91294 1.778,1.91294 0.66675,0 1.055688,-0.16669 1.198563,-0.24606 l -0.09525,-0.29369 c -0.214313,0.10319 -0.500063,0.21431 -1.055688,0.21431 -0.785812,0 -1.452562,-0.48418 -1.452562,-1.69862 z m -2.786063,-0.30163 c 0.07144,-0.58737 0.428625,-1.3335 1.27,-1.3335 0.92075,0 1.143,0.80169 1.135063,1.3335 z"
         style="font-style:normal;font-variant:normal;font-weight:300;font-stretch:normal;font-size:7.9375px;font-family:'Myriad Pro';-inkscape-font-specification:'Myriad Pro, Light';font-variant-ligatures:normal;font-variant-caps:normal;font-variant-numeric:normal;font-feature-settings:normal;text-align:start;writing-mode:lr-tb;text-anchor:start;stroke-width:0.26458335px"
         id="path19140" />
      <path
         d="m 86.398591,167.32923 c -0.206375,0.0952 -0.500063,0.22225 -0.9525,0.22225 -0.881063,0 -1.508125,-0.65087 -1.508125,-1.651 0,-0.89693 0.523875,-1.67481 1.547812,-1.67481 0.420688,0 0.714375,0.11113 0.896938,0.22225 l 0.134937,-0.30956 c -0.142875,-0.10319 -0.531812,-0.23813 -1.000125,-0.23813 -1.135062,0 -1.960562,0.81757 -1.960562,2.032 0,1.143 0.73025,1.94469 1.825625,1.94469 0.555625,0 0.9525,-0.16669 1.119187,-0.24606 z"
         style="font-style:normal;font-variant:normal;font-weight:300;font-stretch:normal;font-size:7.9375px;font-family:'Myriad Pro';-inkscape-font-specification:'Myriad Pro, Light';font-variant-ligatures:normal;font-variant-caps:normal;font-variant-numeric:normal;font-feature-settings:normal;text-align:start;writing-mode:lr-tb;text-anchor:start;stroke-width:0.26458335px"
         id="path19142" />
      <path
         d="m 87.406646,167.79755 h 0.381 v -2.10344 c 0,-0.127 0.0079,-0.254 0.03175,-0.36513 0.103188,-0.61118 0.47625,-1.06362 1.000125,-1.06362 0.07144,0 0.127,0 0.182563,0.008 v -0.35719 c -0.04762,-0.008 -0.103188,-0.0159 -0.15875,-0.0159 -0.515938,0 -0.912813,0.37307 -1.0795,0.85725 h -0.02381 l -0.01587,-0.76993 h -0.34925 c 0.02381,0.37306 0.03175,0.762 0.03175,1.143 z"
         style="font-style:normal;font-variant:normal;font-weight:300;font-stretch:normal;font-size:7.9375px;font-family:'Myriad Pro';-inkscape-font-specification:'Myriad Pro, Light';font-variant-ligatures:normal;font-variant-caps:normal;font-variant-numeric:normal;font-feature-settings:normal;text-align:start;writing-mode:lr-tb;text-anchor:start;stroke-width:0.26458335px"
         id="path19144" />
      <path
         d="m 92.534244,165.85286 c 0.01587,-0.0714 0.01587,-0.127 0.01587,-0.23019 0,-0.54769 -0.238125,-1.72244 -1.484312,-1.72244 -0.98425,0 -1.7145,0.79375 -1.7145,2.06375 0,1.11919 0.682625,1.91294 1.778,1.91294 0.66675,0 1.055687,-0.16669 1.198562,-0.24606 l -0.09525,-0.29369 c -0.214312,0.10319 -0.500062,0.21431 -1.055687,0.21431 -0.785813,0 -1.452563,-0.48418 -1.452563,-1.69862 z m -2.786062,-0.30163 c 0.07144,-0.58737 0.428625,-1.3335 1.27,-1.3335 0.92075,0 1.143,0.80169 1.135062,1.3335 z"
         style="font-style:normal;font-variant:normal;font-weight:300;font-stretch:normal;font-size:7.9375px;font-family:'Myriad Pro';-inkscape-font-specification:'Myriad Pro, Light';font-variant-ligatures:normal;font-variant-caps:normal;font-variant-numeric:normal;font-feature-settings:normal;text-align:start;writing-mode:lr-tb;text-anchor:start;stroke-width:0.26458335px"
         id="path19146" />
      <path
         d="m 93.661358,163.28905 v 0.6985 h -0.642937 v 0.30956 h 0.642937 v 2.40506 c 0,0.38894 0.0635,0.71438 0.238125,0.91281 0.142875,0.17463 0.373063,0.26194 0.650875,0.26194 0.230188,0 0.404813,-0.0397 0.531813,-0.0873 l -0.04762,-0.28575 c -0.09525,0.0317 -0.238125,0.0556 -0.436563,0.0556 -0.404812,0 -0.555625,-0.30162 -0.555625,-0.78581 v -2.4765 h 1.087438 v -0.30956 h -1.087438 v -0.84138 z"
         style="font-style:normal;font-variant:normal;font-weight:300;font-stretch:normal;font-size:7.9375px;font-family:'Myriad Pro';-inkscape-font-specification:'Myriad Pro, Light';font-variant-ligatures:normal;font-variant-caps:normal;font-variant-numeric:normal;font-feature-settings:normal;text-align:start;writing-mode:lr-tb;text-anchor:start;stroke-width:0.26458335px"
         id="path19148" />
      <path
         d="m 97.399905,167.51973 c 0.277813,0.20638 0.817563,0.35719 1.277938,0.35719 1.143,0 1.698627,-0.69056 1.698627,-1.46844 0,-0.79375 -0.468315,-1.19856 -1.349377,-1.55575 -0.769938,-0.30162 -1.11125,-0.60325 -1.11125,-1.19062 0,-0.42069 0.293687,-0.97631 1.158875,-0.97631 0.460375,0 0.801687,0.15081 0.944562,0.254 l 0.14288,-0.32544 c -0.182567,-0.11906 -0.563567,-0.24606 -1.06363,-0.24606 -0.912812,0 -1.55575,0.5715 -1.55575,1.35731 0,0.72231 0.515938,1.16681 1.373188,1.47637 0.777875,0.29369 1.087442,0.65088 1.087442,1.24619 0,0.65881 -0.49213,1.11125 -1.293817,1.11125 -0.4445,0 -0.865188,-0.14287 -1.166813,-0.34925 z"
         style="font-style:normal;font-variant:normal;font-weight:300;font-stretch:normal;font-size:7.9375px;font-family:'Myriad Pro';-inkscape-font-specification:'Myriad Pro, Light';font-variant-ligatures:normal;font-variant-caps:normal;font-variant-numeric:normal;font-feature-settings:normal;text-align:start;writing-mode:lr-tb;text-anchor:start;stroke-width:0.26458335px"
         id="path19150" />
      <path
         d="m 101.39246,167.79755 h 0.381 v -2.32569 c 0,-0.15875 0.008,-0.26194 0.0476,-0.381 0.16669,-0.46831 0.61119,-0.85725 1.15094,-0.85725 0.77788,0 1.04775,0.62706 1.04775,1.30969 v 2.25425 h 0.381 v -2.29394 c 0,-1.42081 -0.96837,-1.60338 -1.32556,-1.60338 -0.28575,0 -0.54769,0.0873 -0.76994,0.22225 -0.22225,0.13494 -0.40481,0.33338 -0.51594,0.54769 h -0.0159 v -2.51619 h -0.381 z"
         style="font-style:normal;font-variant:normal;font-weight:300;font-stretch:normal;font-size:7.9375px;font-family:'Myriad Pro';-inkscape-font-specification:'Myriad Pro, Light';font-variant-ligatures:normal;font-variant-caps:normal;font-variant-numeric:normal;font-feature-settings:normal;text-align:start;writing-mode:lr-tb;text-anchor:start;stroke-width:0.26458335px"
         id="path19152" />
      <path
         d="m 108.02026,165.40042 c 0,-0.67469 -0.21431,-1.50019 -1.31762,-1.50019 -0.34131,0 -0.76994,0.0952 -1.11919,0.32544 l 0.11906,0.27781 c 0.27782,-0.19843 0.62707,-0.28575 0.96044,-0.28575 0.90488,-0.008 0.97631,0.74613 0.97631,1.11919 v 0.10319 c -1.55575,-0.0159 -2.32568,0.51594 -2.32568,1.397 0,0.508 0.34925,1.04775 1.11918,1.04775 0.61119,0 1.03188,-0.34131 1.22238,-0.635 h 0.0159 l 0.0556,0.54769 h 0.34925 c -0.0476,-0.29369 -0.0556,-0.60325 -0.0556,-0.90488 z m -0.381,1.17475 c 0,0.0635 -0.008,0.15081 -0.0397,0.23019 -0.127,0.37306 -0.49213,0.762 -1.12713,0.762 -0.39687,0 -0.762,-0.24606 -0.762,-0.79375 0,-0.91281 1.09538,-1.03981 1.92881,-1.016 z"
         style="font-style:normal;font-variant:normal;font-weight:300;font-stretch:normal;font-size:7.9375px;font-family:'Myriad Pro';-inkscape-font-specification:'Myriad Pro, Light';font-variant-ligatures:normal;font-variant-caps:normal;font-variant-numeric:normal;font-feature-settings:normal;text-align:start;writing-mode:lr-tb;text-anchor:start;stroke-width:0.26458335px"
         id="path19154" />
      <path
         d="m 109.24263,167.79755 h 0.381 v -2.10344 c 0,-0.127 0.008,-0.254 0.0317,-0.36513 0.10319,-0.61118 0.47625,-1.06362 1.00012,-1.06362 0.0714,0 0.127,0 0.18257,0.008 v -0.35719 c -0.0476,-0.008 -0.10319,-0.0159 -0.15875,-0.0159 -0.51594,0 -0.91282,0.37307 -1.0795,0.85725 h -0.0238 l -0.0159,-0.76993 h -0.34925 c 0.0238,0.37306 0.0318,0.762 0.0318,1.143 z"
         style="font-style:normal;font-variant:normal;font-weight:300;font-stretch:normal;font-size:7.9375px;font-family:'Myriad Pro';-inkscape-font-specification:'Myriad Pro, Light';font-variant-ligatures:normal;font-variant-caps:normal;font-variant-numeric:normal;font-feature-settings:normal;text-align:start;writing-mode:lr-tb;text-anchor:start;stroke-width:0.26458335px"
         id="path19156" />
      <path
         d="m 112.02868,167.79755 v -3.81 h -0.381 v 3.81 z m -0.19844,-4.572 c 0.1905,0 0.30956,-0.15082 0.30956,-0.32544 0,-0.18256 -0.127,-0.33338 -0.30162,-0.33338 -0.17463,0 -0.30957,0.15875 -0.30957,0.33338 0,0.17462 0.11907,0.32544 0.29369,0.32544 z"
         style="font-style:normal;font-variant:normal;font-weight:300;font-stretch:normal;font-size:7.9375px;font-family:'Myriad Pro';-inkscape-font-specification:'Myriad Pro, Light';font-variant-ligatures:normal;font-variant-caps:normal;font-variant-numeric:normal;font-feature-settings:normal;text-align:start;writing-mode:lr-tb;text-anchor:start;stroke-width:0.26458335px"
         id="path19158" />
      <path
         d="m 113.30661,167.79755 h 0.381 v -2.36538 c 0,-0.11906 0.0238,-0.24606 0.0476,-0.33337 0.15081,-0.50007 0.61118,-0.88107 1.143,-0.88107 0.78581,0 1.05568,0.62707 1.05568,1.32557 v 2.25425 h 0.381 v -2.286 c 0,-1.42875 -0.96837,-1.61132 -1.3335,-1.61132 -0.61912,0 -1.10331,0.34132 -1.30968,0.76994 h -0.0159 l -0.0238,-0.68262 h -0.35719 c 0.0238,0.30162 0.0318,0.56356 0.0318,0.91281 z"
         style="font-style:normal;font-variant:normal;font-weight:300;font-stretch:normal;font-size:7.9375px;font-family:'Myriad Pro';-inkscape-font-specification:'Myriad Pro, Light';font-variant-ligatures:normal;font-variant-caps:normal;font-variant-numeric:normal;font-feature-settings:normal;text-align:start;writing-mode:lr-tb;text-anchor:start;stroke-width:0.26458335px"
         id="path19160" />
      <path
         d="m 120.60117,164.9718 c 0,-0.39688 0.008,-0.6985 0.0318,-0.98425 h -0.34925 l -0.0238,0.64293 h -0.0159 c -0.15875,-0.3175 -0.53181,-0.73025 -1.28588,-0.73025 -0.84137,0 -1.7145,0.6985 -1.7145,2.02407 0,1.03981 0.67469,1.87325 1.63513,1.87325 0.68262,0 1.12712,-0.34925 1.32556,-0.73819 h 0.0159 v 0.53975 c 0,1.12712 -0.57944,1.53987 -1.38113,1.53987 -0.49212,0 -0.86519,-0.14287 -1.13506,-0.3175 l -0.13494,0.30163 c 0.29369,0.22225 0.77788,0.33337 1.21444,0.33337 0.42862,0 0.94456,-0.11906 1.29381,-0.45243 0.3175,-0.30163 0.52388,-0.78582 0.52388,-1.76213 z m -0.381,1.24618 c 0,0.13494 -0.0238,0.27782 -0.0635,0.40482 -0.19844,0.53975 -0.67469,0.85725 -1.18269,0.85725 -0.89694,0 -1.34938,-0.73819 -1.34938,-1.59544 0,-1.00806 0.55563,-1.66688 1.36525,-1.66688 0.62707,0 1.02394,0.41275 1.18269,0.86519 0.0397,0.11113 0.0476,0.23019 0.0476,0.37306 z"
         style="font-style:normal;font-variant:normal;font-weight:300;font-stretch:normal;font-size:7.9375px;font-family:'Myriad Pro';-inkscape-font-specification:'Myriad Pro, Light';font-variant-ligatures:normal;font-variant-caps:normal;font-variant-numeric:normal;font-feature-settings:normal;text-align:start;writing-mode:lr-tb;text-anchor:start;stroke-width:0.26458335px"
         id="path19162" />
      <path
         d="m 123.61741,167.79755 h 0.381 v -2.286 c 0.1905,0.0556 0.40481,0.0635 0.65087,0.0635 0.65881,0 1.23031,-0.20638 1.57163,-0.59532 0.24606,-0.26987 0.37306,-0.61118 0.37306,-1.07156 0,-0.4445 -0.15081,-0.80169 -0.41275,-1.04775 -0.29369,-0.28575 -0.77788,-0.45244 -1.41288,-0.45244 -0.45243,0 -0.84137,0.0476 -1.15093,0.10319 z m 0.381,-5.00857 c 0.14287,-0.0318 0.40481,-0.0635 0.75406,-0.0635 0.84931,0 1.4605,0.381 1.4605,1.22238 0,0.84931 -0.5715,1.30969 -1.53194,1.30969 -0.26194,0 -0.50006,-0.0159 -0.68262,-0.0794 z"
         style="font-style:normal;font-variant:normal;font-weight:300;font-stretch:normal;font-size:7.9375px;font-family:'Myriad Pro';-inkscape-font-specification:'Myriad Pro, Light';font-variant-ligatures:normal;font-variant-caps:normal;font-variant-numeric:normal;font-feature-settings:normal;text-align:start;writing-mode:lr-tb;text-anchor:start;stroke-width:0.26458335px"
         id="path19164" />
      <path
         d="m 129.7372,165.40042 c 0,-0.67469 -0.21431,-1.50019 -1.31762,-1.50019 -0.34131,0 -0.76994,0.0952 -1.11919,0.32544 l 0.11906,0.27781 c 0.27782,-0.19843 0.62707,-0.28575 0.96044,-0.28575 0.90488,-0.008 0.97631,0.74613 0.97631,1.11919 v 0.10319 c -1.55575,-0.0159 -2.32568,0.51594 -2.32568,1.397 0,0.508 0.34925,1.04775 1.11918,1.04775 0.61119,0 1.03188,-0.34131 1.22238,-0.635 h 0.0159 l 0.0556,0.54769 h 0.34925 c -0.0476,-0.29369 -0.0556,-0.60325 -0.0556,-0.90488 z m -0.381,1.17475 c 0,0.0635 -0.008,0.15081 -0.0397,0.23019 -0.127,0.37306 -0.49213,0.762 -1.12713,0.762 -0.39687,0 -0.762,-0.24606 -0.762,-0.79375 0,-0.91281 1.09538,-1.03981 1.92881,-1.016 z"
         style="font-style:normal;font-variant:normal;font-weight:300;font-stretch:normal;font-size:7.9375px;font-family:'Myriad Pro';-inkscape-font-specification:'Myriad Pro, Light';font-variant-ligatures:normal;font-variant-caps:normal;font-variant-numeric:normal;font-feature-settings:normal;text-align:start;writing-mode:lr-tb;text-anchor:start;stroke-width:0.26458335px"
         id="path19166" />
      <path
         d="m 133.62657,162.15398 v 2.42094 h -0.0159 c -0.16668,-0.33337 -0.58737,-0.67469 -1.24618,-0.67469 -0.93663,0 -1.72244,0.79375 -1.7145,2.06375 0,1.13507 0.6985,1.92088 1.64306,1.92088 0.70644,0 1.15887,-0.38894 1.35731,-0.80963 h 0.0159 l 0.0318,0.72232 h 0.34131 c -0.0238,-0.26988 -0.0318,-0.60325 -0.0318,-0.88107 v -4.7625 z m 0,4.10369 c 0,0.11906 -0.008,0.22225 -0.0397,0.3175 -0.15875,0.62706 -0.67469,0.99219 -1.22237,0.99219 -0.90488,0 -1.3335,-0.78581 -1.3335,-1.64306 0,-0.98425 0.52387,-1.70657 1.35731,-1.70657 0.61912,0 1.07156,0.42069 1.19856,0.92869 0.0317,0.11113 0.0397,0.24606 0.0397,0.34925 z"
         style="font-style:normal;font-variant:normal;font-weight:300;font-stretch:normal;font-size:7.9375px;font-family:'Myriad Pro';-inkscape-font-specification:'Myriad Pro, Light';font-variant-ligatures:normal;font-variant-caps:normal;font-variant-numeric:normal;font-feature-settings:normal;text-align:start;writing-mode:lr-tb;text-anchor:start;stroke-width:0.26458335px"
         id="path19168" />
    </g>
  </g>
</svg>
